# Blender v3.2.2 OBJ File: ''
# www.blender.org
mtllib halfCylinder.mtl
o halfCylinder_big
v 0.631806 2.937753 -0.765024
v 1.122211 3.807556 -0.013061
v 1.570495 3.629138 -0.099039
v 1.080091 2.759335 -0.851001
v 2.000898 3.394956 -0.108853
v 1.510494 2.525153 -0.860816
v 2.396880 3.114011 -0.042127
v 1.906475 2.244209 -0.794089
v 2.743223 2.797099 0.098575
v 2.252818 1.927296 -0.653387
v 3.026617 2.456398 0.307847
v 2.536212 1.586596 -0.444115
v 3.236172 2.105002 0.577646
v 2.745768 1.235199 -0.174316
v 3.363835 1.756414 0.897603
v 2.873431 0.886612 0.145641
v 3.404700 1.424031 1.255424
v 2.914295 0.554229 0.503462
v 3.357196 1.120626 1.637357
v 2.866791 0.250824 0.885395
v 3.223149 0.857858 2.028724
v 2.732744 -0.011944 1.276762
v 3.007710 0.645826 2.414486
v 2.511482 -0.236442 1.624381
v 2.719158 0.492678 2.779818
v 2.201577 -0.421448 1.900914
v 2.368583 0.404298 3.110681
v 1.772643 -0.567006 2.126069
v 1.906591 0.346167 3.308787
v 1.398223 -0.577289 2.440529
v 1.170267 0.416627 3.536104
v 0.794827 -0.478234 2.738152
v 0.721329 0.532425 3.694942
v 0.230924 -0.337377 2.942979
v -0.617828 -3.062835 0.810714
v -0.127424 -2.193032 1.562676
v -0.576362 -2.077233 1.721513
v -1.066766 -2.947036 0.969551
v -0.349002 1.198148 -2.268948
v 0.141402 2.067951 -1.516985
v 0.589686 1.889532 -1.602963
v 0.099282 1.019730 -2.354925
v 0.529685 0.785548 -2.364740
v 1.020089 1.655351 -1.612778
v 1.416071 1.374406 -1.546051
v 0.925666 0.504603 -2.298013
v 1.762414 1.057494 -1.405349
v 1.272009 0.187691 -2.157311
v 2.045808 0.716793 -1.196077
v 1.555404 -0.153010 -1.948039
v 2.255363 0.365397 -0.926278
v 1.764959 -0.504406 -1.678240
v 2.383026 0.016809 -0.606321
v 1.892622 -0.852993 -1.358283
v 2.423891 -0.315574 -0.248500
v 1.933486 -1.185377 -1.000462
v 2.376387 -0.618979 0.133433
v 1.885983 -1.488782 -0.618530
v 2.242340 -0.881747 0.524800
v 1.751935 -1.751549 -0.227162
v 2.026901 -1.093779 0.910562
v 1.536496 -1.963582 0.158600
v 1.738349 -1.246927 1.275894
v 1.247945 -2.116730 0.523932
v 1.387774 -1.335307 1.606757
v 0.780631 -2.243739 0.868917
v 0.988647 -1.355520 1.890435
v 0.469557 -2.207319 1.243295
v 0.556308 -1.306792 2.116028
v -0.159982 -1.214389 2.343220
v 0.007839 -3.095126 0.386511
v -0.391123 0.149927 -3.106888
v 0.039281 -0.084254 -3.116702
v 0.406965 -3.074912 0.102833
v 0.757540 -2.986533 -0.228030
v 1.046092 -2.833384 -0.593362
v 1.261531 -2.621352 -0.979124
v 1.395578 -2.358584 -1.370491
v 1.443082 -2.055179 -1.752424
v 1.402218 -1.722795 -2.110245
v 1.274554 -1.374208 -2.430202
v 1.064999 -1.022812 -2.700001
v 0.781605 -0.682112 -2.909273
v 0.435262 -0.365199 -3.049976
v -0.839407 0.328345 -3.020910
vn 0.0969 0.6191 -0.7793
vn 0.2735 0.5362 -0.7986
vn 0.4396 0.4326 -0.7871
vn 0.5888 0.3125 -0.7454
vn 0.7153 0.1803 -0.6751
vn 0.8144 0.0412 -0.5788
vn 0.8822 -0.0994 -0.4603
vn 0.9160 -0.2363 -0.3241
vn 0.9147 -0.3641 -0.1754
vn 0.8782 -0.4778 -0.0200
vn 0.8080 -0.5733 0.1362
vn 0.8046 -0.5773 0.1393
vn 0.7045 -0.6504 0.2838
vn 0.6735 -0.6737 0.3041
vn 0.5668 -0.7148 0.4096
vn 0.4883 -0.7507 0.4450
vn 0.3330 -0.7642 0.5523
vn 0.4509 -0.7305 0.5129
vn 0.1415 -0.7183 0.6811
vn 0.2207 -0.6991 0.6801
vn 0.0812 -0.6821 0.7267
vn 0.0938 -0.6809 0.7264
vn 0.0834 -0.6782 0.7301
vn 0.7067 -0.6466 0.2871
vn 0.5783 -0.6952 0.4270
vn 0.5284 -0.7194 0.4509
vn 0.4232 -0.7246 0.5439
vn 0.5186 -0.6947 0.4985
vn 0.2762 -0.6825 0.6767
vn 0.3369 -0.6718 0.6597
vn 0.1665 -0.6114 0.7736
vn 0.1163 -0.6169 0.7784
vn 0.3041 -0.7387 0.6015
vn 0.3648 -0.7181 0.5927
vn 0.5195 -0.6936 0.4991
vn 0.4178 -0.7340 0.5355
vn 0.5354 -0.7046 0.4658
vn 0.5895 -0.6746 0.4444
vn 0.1271 -0.6187 0.7753
vn 0.1683 -0.6064 0.7771
vn 0.2511 -0.6434 0.7232
vn 0.3039 -0.6264 0.7178
vn 0.5030 -0.6426 0.5779
vn 0.4566 -0.6611 0.5953
vn 0.5076 -0.6828 0.5256
vn 0.6111 -0.6300 0.4792
vn 0.6815 -0.6557 0.3250
vn 0.7158 -0.6299 0.3014
vn 0.8054 -0.5758 0.1408
vn 0.8089 -0.5717 0.1375
usemtl None
s off
f 1//1 2//1 3//1
f 1//1 3//1 4//1
f 4//2 3//2 5//2
f 4//2 5//2 6//2
f 6//3 5//3 7//3
f 6//3 7//3 8//3
f 8//4 7//4 9//4
f 8//4 9//4 10//4
f 10//5 9//5 11//5
f 10//5 11//5 12//5
f 12//6 11//6 13//6
f 12//6 13//6 14//6
f 14//7 13//7 15//7
f 14//7 15//7 16//7
f 16//8 15//8 17//8
f 16//8 17//8 18//8
f 18//9 17//9 19//9
f 18//9 19//9 20//9
f 20//10 19//10 21//10
f 20//10 21//10 22//10
f 22//11 21//11 23//11
f 22//12 23//12 24//12
f 24//13 23//13 25//13
f 24//14 25//14 26//14
f 26//15 25//15 27//15
f 26//16 27//16 28//16
f 28//17 27//17 29//17
f 28//18 29//18 30//18
f 30//19 29//19 31//19
f 30//20 31//20 32//20
f 32//21 31//21 33//21
f 32//22 33//22 34//22
f 35//23 36//23 37//23
f 35//23 37//23 38//23
f 39//1 40//1 41//1
f 39//1 41//1 42//1
f 43//3 44//3 45//3
f 43//3 45//3 46//3
f 46//4 45//4 47//4
f 46//4 47//4 48//4
f 48//5 47//5 49//5
f 48//5 49//5 50//5
f 50//6 49//6 51//6
f 50//6 51//6 52//6
f 52//7 51//7 53//7
f 52//7 53//7 54//7
f 54//8 53//8 55//8
f 54//8 55//8 56//8
f 56//9 55//9 57//9
f 56//9 57//9 58//9
f 58//10 57//10 59//10
f 58//10 59//10 60//10
f 60//11 59//11 61//11
f 60//11 61//11 62//11
f 62//24 61//24 63//24
f 62//24 63//24 64//24
f 64//25 63//25 65//25
f 64//26 65//26 66//26
f 66//27 65//27 67//27
f 66//28 67//28 68//28
f 42//2 41//2 44//2
f 42//2 44//2 43//2
f 68//29 67//29 69//29
f 68//30 69//30 36//30
f 36//31 69//31 70//31
f 36//32 70//32 37//32
f 71//33 68//33 36//33
f 71//34 36//34 35//34
f 72//2 42//2 43//2
f 72//2 43//2 73//2
f 74//35 66//35 68//35
f 74//36 68//36 71//36
f 75//37 64//37 66//37
f 75//38 66//38 74//38
f 76//24 62//24 64//24
f 76//24 64//24 75//24
f 77//11 60//11 62//11
f 77//11 62//11 76//11
f 78//10 58//10 60//10
f 78//10 60//10 77//10
f 79//9 56//9 58//9
f 79//9 58//9 78//9
f 80//8 54//8 56//8
f 80//8 56//8 79//8
f 81//7 52//7 54//7
f 81//7 54//7 80//7
f 82//6 50//6 52//6
f 82//6 52//6 81//6
f 83//5 48//5 50//5
f 83//5 50//5 82//5
f 84//4 46//4 48//4
f 84//4 48//4 83//4
f 73//3 43//3 46//3
f 73//3 46//3 84//3
f 85//1 39//1 42//1
f 85//1 42//1 72//1
f 69//39 32//39 34//39
f 69//40 34//40 70//40
f 67//41 30//41 32//41
f 67//42 32//42 69//42
f 65//43 28//43 30//43
f 65//44 30//44 67//44
f 63//45 26//45 28//45
f 63//46 28//46 65//46
f 61//47 24//47 26//47
f 61//48 26//48 63//48
f 59//49 22//49 24//49
f 59//50 24//50 61//50
f 57//10 20//10 22//10
f 57//10 22//10 59//10
f 55//9 18//9 20//9
f 55//9 20//9 57//9
f 53//8 16//8 18//8
f 53//8 18//8 55//8
f 51//7 14//7 16//7
f 51//7 16//7 53//7
f 49//6 12//6 14//6
f 49//6 14//6 51//6
f 47//5 10//5 12//5
f 47//5 12//5 49//5
f 45//4 8//4 10//4
f 45//4 10//4 47//4
f 44//3 6//3 8//3
f 44//3 8//3 45//3
f 41//2 4//2 6//2
f 41//2 6//2 44//2
f 40//1 1//1 4//1
f 40//1 4//1 41//1
